<?xml version="1.0" encoding="UTF-8" standalone="no"?>
<!-- Created with Inkscape (http://www.inkscape.org/) -->

<svg
   xmlns:dc="http://purl.org/dc/elements/1.1/"
   xmlns:cc="http://creativecommons.org/ns#"
   xmlns:rdf="http://www.w3.org/1999/02/22-rdf-syntax-ns#"
   xmlns:svg="http://www.w3.org/2000/svg"
   xmlns="http://www.w3.org/2000/svg"
   xmlns:sodipodi="http://sodipodi.sourceforge.net/DTD/sodipodi-0.dtd"
   xmlns:inkscape="http://www.inkscape.org/namespaces/inkscape"
   version="1.1"
   id="svg2"
   xml:space="preserve"
   width="573.33331"
   height="148"
   viewBox="0 0 573.33331 148"
   sodipodi:docname="ru.svg"
   inkscape:version="0.92.3 (2405546, 2018-03-11)"><metadata
     id="metadata8"><rdf:RDF><cc:Work
         rdf:about=""><dc:format>image/svg+xml</dc:format><dc:type
           rdf:resource="http://purl.org/dc/dcmitype/StillImage" /><dc:title></dc:title></cc:Work></rdf:RDF></metadata><defs
     id="defs6" /><sodipodi:namedview
     pagecolor="#ffffff"
     bordercolor="#666666"
     borderopacity="1"
     objecttolerance="10"
     gridtolerance="10"
     guidetolerance="10"
     inkscape:pageopacity="0"
     inkscape:pageshadow="2"
     inkscape:window-width="730"
     inkscape:window-height="480"
     id="namedview4"
     showgrid="false"
     inkscape:zoom="0.65755816"
     inkscape:cx="286.66666"
     inkscape:cy="74"
     inkscape:window-x="0"
     inkscape:window-y="0"
     inkscape:window-maximized="0"
     inkscape:current-layer="g10" /><g
     id="g10"
     inkscape:groupmode="layer"
     inkscape:label="ink_ext_XXXXXX"
     transform="matrix(1.3333333,0,0,-1.3333333,0,148)"><g
       id="g12"
       transform="scale(0.1)"><path
         d="M 435.563,11.7578 C 282.391,8.99609 161.047,-6.72656 86.4258,116.469 53.7266,179.973 61.7813,248.395 7.99609,226.973 26.2031,246.531 41.6836,252.176 59.1211,240.863 30.5313,306.867 8.98828,408.16 84.375,489.336 51.25,393.563 92.5898,417.5 116.266,318.066 116.656,402.66 34.4883,430.629 157.695,596.352 109.07,517.191 165.918,516.531 146.5,394.52 185.766,499.406 96.9258,580.691 239.352,690.035 212.59,639.203 224.648,554.145 205.57,492.383 c 49.399,121.472 -18.047,172.965 137.727,290.125 -52.914,-72.172 -10.133,-97.996 -58.328,-180.207 82.961,99.117 0.461,174.418 153.824,258.578 -71.773,-79.711 -20.941,-107.84 -64.922,-170.246 72.027,61.719 -14.586,152.699 174.922,254.476 -62.484,-57.461 -42.488,-90.804 -74.867,-146.117 54.012,94.621 130.441,139.192 87.808,199.196 24.11,-16.051 46.914,-60.536 20.121,-98.411 50.422,18.18 136.715,185.753 50.84,190.833 1.301,0.02 15,-3.5 17.672,-11.49 2.778,-8.31 2.703,-16.37 2.168,-17.35 -3.242,-5.88 -8.113,-11.02 -13.945,-12.27 -23.457,-5.05 -31.895,15.2 -23.852,32.34 2.785,5.95 8.5,11.57 14.582,14.97 4.028,2.24 8.188,3.22 11.832,3.26 32.313,0.38 46.453,-32.15 46.141,-69.69 -0.512,-60.677 -49.648,-150.005 -127.637,-197.032 64.114,29.91 95.852,69.695 117.024,115.441 C 663.039,787.113 484.723,797.566 412.695,686.344 482.23,770.496 645.641,793.164 654.023,870.125 660.359,775.766 557.117,709 482.848,686.344 409.699,661.141 349.5,630.68 297.641,573.137 l -23.848,-26.465 c 64.164,54.156 108.273,93.945 194.16,114.523 60.41,14.477 98.375,26.446 128.547,80.196 -4.437,-24.184 -5.359,-47.184 -18.242,-68.278 -80.371,-131.57 -293.246,-77.922 -390.055,-274.933 31.719,38.457 52.598,69.496 93.613,98.16 68.938,48.14 170.571,49.34 234.43,97.273 C 485.199,505.359 394.719,457.18 308.535,430.203 233.988,404.574 195.703,403.035 172.734,306.742 221.48,444.734 321.418,367.848 395.004,452.012 329.629,278.66 182.375,391.441 181.555,195.523 205.512,352.496 301.02,301.047 333.336,356.883 342.695,282.027 292.375,249.164 243.539,222.203 165.055,158.508 215.215,81.3281 264.543,64.2227 c -10.941,30.6015 -17.969,62.2343 3.023,90.2543 24.227,32.293 68.821,36.3 105.551,34.82 41.403,-1.664 73.613,-7.887 114.309,11.871 33.433,16.23 49.621,38.512 56.797,78.359 11.156,61.938 -55.61,101.446 -83.457,65.723 16.589,-3.109 26.277,-42.008 -4.211,-44.109 -18.309,-1.258 -28.332,14.89 -23.856,32.347 8.114,31.61 44.446,40.84 64.543,38.227 24.074,-3.133 50.781,-14.465 63.141,-38.227 19.09,-36.703 16.285,-75.136 -4.215,-110.269 C 524.891,169.613 448.961,165.875 388.844,176.172 201.531,208.254 261.918,12.1484 435.563,11.7578"
         style="fill:#0a3470;fill-opacity:1;fill-rule:evenodd;stroke:none"
         id="path14"
         inkscape:connector-curvature="0" /><path
         d="m 2042.08,680.219 -14.72,-13.535 c 48.52,-24.887 76.12,4.937 94.43,46.168 l 79.48,194.261 h -26.68 l -72.62,-183.804 -79.23,183.804 h -24.6 l 89.82,-207.488 c -6.68,-12.516 -16.08,-27.371 -45.88,-19.406"
         style="fill:#0a3470;fill-opacity:1;fill-rule:nonzero;stroke:none"
         id="path16"
         inkscape:connector-curvature="0" /><path
         d="m 915.035,657.699 c 48.086,0 137.925,-14.98 159.175,45.84 14.04,40.176 -9.54,83.149 -43.69,95.777 -34.137,12.629 -82.879,6.547 -90.813,6.547 v 76.215 l 115.303,-0.047 v 24.926 l -140.467,0.141 z m 24.672,25.078 v 100.508 c 40.801,0 113.593,13.598 113.593,-50.254 0.48,-63.496 -72.234,-48.078 -113.593,-50.254"
         style="fill:#0a3470;fill-opacity:1;fill-rule:nonzero;stroke:none"
         id="path18"
         inkscape:connector-curvature="0" /><path
         d="m 1126.38,657.629 h 149.78 v 24.937 l -123.36,0.059 v 60.859 h 111.9 v 23.11 h -111.9 v 115.32 l 123.19,0.117 -0.09,25.082 H 1126.38 V 657.629"
         style="fill:#0a3470;fill-opacity:1;fill-rule:nonzero;stroke:none"
         id="path20"
         inkscape:connector-curvature="0" /><path
         d="m 1308.51,657.938 h 24.98 c 25.37,66.507 55.09,132.468 75.53,200.585 0.57,1.899 0.82,2.911 0.82,2.973 0,-7.867 6.34,-22.164 9.15,-29.496 22.3,-58.109 44.95,-116.078 67.55,-174.062 h 26.75 l -101.34,250.171 h -4.22 l -99.22,-250.171"
         style="fill:#0a3470;fill-opacity:1;fill-rule:nonzero;stroke:none"
         id="path22"
         inkscape:connector-curvature="0" /><path
         d="m 1965.48,851.945 c -23.54,62.969 -93.89,54.828 -146.44,54.828 V 657.938 h 25.27 v 65.867 c 17.85,0 41.19,-0.153 53.71,2.199 56.01,10.508 88.89,68.617 67.46,125.941 z M 1844.31,746.859 v 136.493 c 48.72,0 101.1,-3.434 101.1,-68.43 0,-65.031 -52.4,-68.063 -101.1,-68.063"
         style="fill:#0a3470;fill-opacity:1;fill-rule:nonzero;stroke:none"
         id="path24"
         inkscape:connector-curvature="0" /><path
         d="m 2333.94,657.805 c 14.31,0 27.56,2.043 39.76,5.968 12.16,3.915 23.23,9.731 33.03,17.192 9.81,7.465 18.22,16.418 25.28,26.988 l -19.61,13.969 c -5.72,-8.535 -12.49,-15.82 -20.26,-21.91 -7.76,-6.09 -16.58,-10.766 -26.26,-13.969 -9.66,-3.199 -20.38,-4.957 -31.94,-4.957 -14.01,0 -26.83,2.707 -38.47,7.703 -11.61,4.988 -21.86,12.184 -30.41,21.25 -8.52,9.039 -15.26,19.883 -19.91,32.121 -4.65,12.258 -7.18,25.731 -7.18,40.297 0,14.566 2.53,28.039 7.18,40.297 4.65,12.238 11.36,23.109 19.91,32.184 8.52,9.035 18.8,16.199 30.41,21.191 11.64,4.996 24.46,7.699 38.47,7.699 11.44,0 21.94,-1.687 31.35,-4.777 9.4,-3.074 17.91,-7.571 25.22,-13.254 7.3,-5.68 13.6,-12.477 18.74,-20.297 l 19.26,14.328 c -10.21,15.582 -23.28,27.469 -39.11,35.344 -15.88,7.902 -34.41,11.941 -55.46,11.941 -13.57,0 -26.49,-2.093 -38.64,-5.914 -12.21,-3.836 -23.44,-9.574 -33.57,-16.832 -10.14,-7.269 -19.05,-16.137 -26.44,-26.332 -7.39,-10.18 -13.27,-21.789 -17.34,-34.445 -4.07,-12.676 -6.25,-26.387 -6.25,-41.133 0,-14.746 2.18,-28.457 6.25,-41.133 4.06,-12.656 9.95,-24.265 17.34,-34.449 7.39,-10.191 16.3,-19.062 26.44,-26.328 10.13,-7.258 21.36,-12.996 33.57,-16.832 12.15,-3.824 25.04,-5.91 38.64,-5.91"
         style="fill:#0a3470;fill-opacity:1;fill-rule:nonzero;stroke:none"
         id="path26"
         inkscape:connector-curvature="0" /><path
         d="m 2754.39,765.906 0.02,141.543 -24.53,-0.336 V 657.598 h 24.64 v 73.386 l 28.07,36.329 81.13,-109.715 h 30.46 l -95.5,129.16 86.26,120.355 h -27.73 L 2754.39,765.906"
         style="fill:#0a3470;fill-opacity:1;fill-rule:nonzero;stroke:none"
         id="path28"
         inkscape:connector-curvature="0" /><path
         d="m 3241.2,908.418 h 70.37 c -12.53,-31.367 -53.51,-34.578 -70.37,0"
         style="fill:#0a3470;fill-opacity:1;fill-rule:evenodd;stroke:none"
         id="path30"
         inkscape:connector-curvature="0" /><path
         d="m 1647.48,657.063 c 13.56,0.062 26.41,2.035 38.53,5.929 12.17,3.895 23.29,9.52 33.43,16.883 10.14,7.305 18.89,16.109 26.31,26.406 7.41,10.239 13.15,21.793 17.2,34.547 4.12,12.754 6.15,26.465 6.21,41.254 -0.06,14.789 -2.09,28.504 -6.21,41.254 -4.05,12.754 -9.79,24.309 -17.2,34.547 -7.42,10.301 -16.17,19.101 -26.31,26.406 -10.14,7.363 -21.26,12.992 -33.43,16.887 -12.12,3.887 -24.97,5.867 -38.53,5.922 -13.51,-0.055 -26.25,-2.035 -38.36,-5.922 -12.17,-3.895 -23.24,-9.524 -33.32,-16.887 -10.14,-7.305 -18.89,-16.105 -26.25,-26.406 -7.42,-10.238 -13.15,-21.793 -17.21,-34.547 -4.11,-12.75 -6.14,-26.465 -6.2,-41.254 0.06,-14.789 2.09,-28.5 6.2,-41.254 4.06,-12.754 9.79,-24.308 17.21,-34.547 7.36,-10.297 16.11,-19.101 26.25,-26.406 10.08,-7.363 21.15,-12.988 33.32,-16.883 12.11,-3.894 24.85,-5.867 38.36,-5.929 z m 0,23.351 c -13.8,0.063 -26.48,2.633 -38.07,7.727 -11.59,5.031 -21.62,12.152 -30.13,21.312 -8.58,9.102 -15.19,19.879 -19.87,32.215 -4.76,12.336 -7.13,25.805 -7.2,40.414 0.07,14.609 2.44,28.082 7.2,40.414 4.68,12.336 11.29,23.113 19.87,32.274 8.51,9.101 18.54,16.226 30.13,21.257 11.59,5.09 24.27,7.664 38.07,7.723 13.9,-0.059 26.65,-2.633 38.24,-7.723 11.64,-5.031 21.73,-12.156 30.3,-21.257 8.58,-9.161 15.18,-19.938 19.87,-32.274 4.75,-12.332 7.13,-25.805 7.19,-40.414 -0.06,-14.609 -2.44,-28.078 -7.19,-40.414 -4.69,-12.336 -11.29,-23.113 -19.87,-32.215 -8.57,-9.16 -18.66,-16.281 -30.3,-21.312 -11.59,-5.094 -24.34,-7.664 -38.24,-7.727"
         style="fill:#0a3470;fill-opacity:1;fill-rule:nonzero;stroke:none"
         id="path32"
         inkscape:connector-curvature="0" /><path
         d="m 2944.7,657.793 h -4.16 v 249.109 h 23.22 V 740.129 c 0,-2.703 -0.12,-5.598 -0.29,-8.785 -0.17,-3.133 -0.34,-6.141 -0.58,-9.031 -0.23,-2.887 -0.4,-5.297 -0.57,-7.098 -0.18,-1.871 -0.29,-2.832 -0.29,-2.895 0.06,0.063 0.57,0.844 1.61,2.41 1.04,1.508 2.43,3.493 4.04,5.84 1.68,2.407 3.41,4.871 5.32,7.461 1.85,2.59 3.64,4.934 5.32,7.043 L 3119,906.883 h 4.16 V 657.781 h -23.56 v 168.293 c 0,2.711 0.11,5.598 0.35,8.785 0.17,3.129 0.4,6.145 0.69,9.032 0.29,2.89 0.52,5.297 0.69,7.101 0.23,1.863 0.35,2.828 0.35,2.891 -0.06,-0.063 -0.58,-0.848 -1.62,-2.41 -1.04,-1.504 -2.43,-3.493 -4.04,-5.836 -1.68,-2.407 -3.41,-4.875 -5.32,-7.465 -1.84,-2.59 -3.63,-4.934 -5.31,-7.043 L 2944.7,657.793"
         style="fill:#0a3470;fill-opacity:1;fill-rule:nonzero;stroke:none"
         id="path34"
         inkscape:connector-curvature="0" /><path
         d="m 2586.28,657.324 c 14.37,0 27.68,2.051 39.93,5.981 12.22,3.922 23.34,9.75 33.19,17.23 9.85,7.473 18.3,16.449 25.4,27.035 l -19.71,13.996 c -5.75,-8.554 -12.55,-15.851 -20.35,-21.953 -7.79,-6.097 -16.65,-10.781 -26.38,-13.996 -9.7,-3.203 -20.47,-4.965 -32.08,-4.965 -14.07,0 -26.96,2.711 -38.64,7.715 -11.67,5 -21.97,12.211 -30.55,21.297 -8.56,9.055 -15.33,19.918 -20,32.18 -4.67,12.281 -7.21,25.781 -7.21,40.375 0,14.594 2.54,28.094 7.21,40.375 4.67,12.261 11.41,23.156 20,32.238 8.55,9.059 18.88,16.234 30.55,21.238 11.68,5.004 24.57,7.715 38.64,7.715 11.49,0 22.03,-1.695 31.49,-4.785 9.44,-3.086 18,-7.59 25.33,-13.281 7.34,-5.688 13.67,-12.5 18.83,-20.34 l 19.34,14.359 c -10.25,15.614 -23.38,27.52 -39.28,35.414 -15.95,7.914 -34.57,11.961 -55.71,11.961 -13.64,0 -26.61,-2.093 -38.82,-5.925 -12.26,-3.844 -23.54,-9.594 -33.72,-16.864 -10.19,-7.285 -19.13,-16.168 -26.56,-26.383 -7.42,-10.199 -13.33,-21.832 -17.41,-34.511 -4.09,-12.7 -6.28,-26.434 -6.28,-41.211 0,-14.774 2.19,-28.516 6.28,-41.215 4.07,-12.68 9.99,-24.313 17.41,-34.512 7.43,-10.211 16.37,-19.097 26.56,-26.379 10.18,-7.273 21.46,-13.019 33.72,-16.867 12.21,-3.828 25.16,-5.922 38.82,-5.922"
         style="fill:#0a3470;fill-opacity:1;fill-rule:nonzero;stroke:none"
         id="path36"
         inkscape:connector-curvature="0" /><path
         d="m 3191.95,657.602 h -4.16 v 249.293 h 23.23 V 740 c 0,-2.707 -0.11,-5.605 -0.28,-8.797 -0.18,-3.129 -0.35,-6.14 -0.58,-9.035 -0.23,-2.891 -0.41,-5.301 -0.58,-7.105 -0.17,-1.868 -0.29,-2.833 -0.29,-2.891 0.06,0.058 0.58,0.84 1.62,2.406 1.04,1.508 2.43,3.496 4.05,5.844 1.68,2.41 3.41,4.879 5.32,7.469 1.85,2.589 3.64,4.941 5.31,7.047 l 140.85,173.472 h 4.17 V 657.578 h -23.59 v 168.434 c 0,2.707 0.11,5.601 0.34,8.797 0.18,3.129 0.41,6.14 0.69,9.031 0.3,2.89 0.53,5.301 0.7,7.105 0.23,1.871 0.35,2.832 0.35,2.895 -0.06,-0.063 -0.58,-0.848 -1.62,-2.41 -1.04,-1.508 -2.43,-3.492 -4.05,-5.844 -1.67,-2.41 -3.41,-4.879 -5.32,-7.469 -1.85,-2.59 -3.64,-4.941 -5.32,-7.047 L 3191.95,657.602"
         style="fill:#0a3470;fill-opacity:1;fill-rule:nonzero;stroke:none"
         id="path38"
         inkscape:connector-curvature="0" /><path
         d="m 958.391,66.5664 -14.52,-12.875 c 47.871,-23.668 75.109,4.6953 93.169,43.9102 l 78.43,184.7574 h -26.32 L 1017.49,107.551 939.305,282.359 H 915.039 L 1003.67,85.0273 C 997.074,73.1211 987.793,58.9883 958.391,66.5664"
         style="fill:#0a3470;fill-opacity:1;fill-rule:nonzero;stroke:none"
         id="path40"
         inkscape:connector-curvature="0" /><path
         d="m 1161.38,44.6797 h 25.17 v 80.7463 h 127.23 V 44.6797 h 25.17 V 282.371 h -25.17 V 148.492 h -127.23 v 133.879 h -25.17 V 44.6797"
         style="fill:#0a3470;fill-opacity:1;fill-rule:nonzero;stroke:none"
         id="path42"
         inkscape:connector-curvature="0" /><path
         d="m 1650.83,44.6797 h 89.13 c 12.65,0 23.78,1.8789 33.15,5.3594 9.34,3.4687 17.23,8.5156 23.42,14.7968 6.17,6.2579 10.96,13.7422 13.99,22.1368 3.04,8.4531 4.59,17.7343 4.59,27.6173 0,10.515 -2,20.101 -5.82,28.488 -3.83,8.41 -9.55,15.602 -16.78,21.32 -7.23,5.715 -16.02,9.907 -26.33,12.411 10.14,3.437 17.91,9.23 23.01,17.3 5.11,8.082 7.75,18.118 7.75,29.887 0,8.098 -1.37,15.727 -3.96,22.66 -2.61,7.004 -6.74,13.289 -12.06,18.586 -5.36,5.324 -12.18,9.5 -20.39,12.528 -8.21,3.027 -17.99,4.601 -28.96,4.601 h -80.74 z M 1676,185.195 V 260 h 53.83 c 10.08,0 18.23,-1.691 24.4,-4.895 6.18,-3.203 10.61,-7.57 13.41,-13.167 2.79,-5.59 4.13,-12.055 4.13,-19.34 0,-7.282 -1.29,-13.789 -3.84,-19.34 -2.54,-5.531 -6.75,-10.016 -12.35,-13.168 -5.6,-3.152 -13.21,-4.895 -22.26,-4.895 z m 0,-118.1442 v 96.4762 h 60.82 c 12.11,0 22.07,-2.207 29.82,-6.293 7.76,-4.086 13.65,-9.828 17.36,-17.011 3.71,-7.164 5.6,-15.586 5.6,-24.934 0,-9.238 -1.74,-17.5859 -5.24,-24.7577 -3.51,-7.1758 -9.13,-13.0079 -16.66,-17.129 -7.52,-4.1093 -17.53,-6.3515 -29.49,-6.3515 H 1676"
         style="fill:#0a3470;fill-opacity:1;fill-rule:nonzero;stroke:none"
         id="path44"
         inkscape:connector-curvature="0" /><path
         d="m 1862.26,44.6797 h 149.6 v 22.3711 h -124.43 v 59.4222 h 106.61 v 22.019 H 1887.43 V 260 h 119.54 v 22.371 H 1862.26 V 44.6797"
         style="fill:#0a3470;fill-opacity:1;fill-rule:nonzero;stroke:none"
         id="path46"
         inkscape:connector-curvature="0" /><path
         d="m 2064.27,44.6797 h 25.17 v 59.0743 h 28.67 c 16.25,0 30.56,2.297 42.76,6.582 12.22,4.297 22.53,10.48 30.76,18.352 8.16,7.812 14.47,17.335 18.52,28.14 4.06,10.828 6.18,22.895 6.18,36.059 0,13.398 -2.12,25.633 -6.18,36.531 -4.06,10.906 -10.36,20.437 -18.52,28.25 -8.23,7.875 -18.52,14.023 -30.76,18.234 -12.19,4.196 -26.61,6.469 -42.76,6.469 h -53.84 z m 25.17,81.0903 V 260 h 27.27 c 13.34,0 24.75,-1.723 34.02,-4.953 9.33,-3.25 16.99,-7.984 22.72,-13.926 5.76,-5.957 10.08,-13.094 12.7,-21.203 2.64,-8.16 3.96,-17.188 3.96,-27.031 0,-9.844 -1.34,-18.864 -3.96,-26.973 -2.64,-8.164 -6.94,-15.301 -12.7,-21.266 -5.73,-5.933 -13.4,-10.617 -22.72,-13.863 -9.28,-3.238 -20.78,-5.015 -34.02,-5.015 h -27.27"
         style="fill:#0a3470;fill-opacity:1;fill-rule:nonzero;stroke:none"
         id="path48"
         inkscape:connector-curvature="0" /><path
         d="m 2374.79,43.8984 c 14.28,0 27.53,1.9571 39.71,5.7071 12.14,3.7461 23.21,9.3125 33,16.4492 9.8,7.1406 18.2,15.707 25.25,25.8125 l -19.59,13.3628 c -5.72,-8.1636 -12.48,-15.1362 -20.23,-20.9566 -7.76,-5.8281 -16.57,-10.2968 -26.24,-13.3632 -9.64,-3.0547 -20.35,-4.7422 -31.9,-4.7422 -13.99,0 -26.81,2.5898 -38.42,7.3711 -11.6,4.7695 -21.85,11.6523 -30.39,20.3281 -8.5,8.6448 -15.24,19.0198 -19.88,30.7228 -4.65,11.719 -7.17,24.613 -7.17,38.543 0,13.933 2.52,26.824 7.17,38.547 4.64,11.707 11.35,22.109 19.88,30.785 8.51,8.64 18.78,15.5 30.39,20.269 11.61,4.782 24.43,7.364 38.42,7.364 11.43,0 21.91,-1.614 31.31,-4.567 9.39,-2.945 17.9,-7.246 25.19,-12.676 7.3,-5.433 13.59,-11.937 18.72,-19.417 l 19.24,13.707 c -10.2,14.902 -23.25,26.273 -39.07,33.808 -15.86,7.559 -34.36,11.418 -55.39,11.418 -13.56,0 -26.46,-2 -38.6,-5.652 -12.19,-3.672 -23.41,-9.16 -33.53,-16.106 -10.13,-6.945 -19.03,-15.433 -26.41,-25.183 -7.38,-9.739 -13.27,-20.844 -17.32,-32.95 -4.06,-12.121 -6.24,-25.238 -6.24,-39.347 0,-14.106 2.18,-27.219 6.24,-39.348 4.05,-12.101 9.94,-23.207 17.32,-32.9452 7.38,-9.75 16.28,-18.2343 26.41,-25.1835 10.12,-6.9454 21.34,-12.4336 33.53,-16.1016 12.14,-3.6602 25.01,-5.6563 38.6,-5.6563"
         style="fill:#0a3470;fill-opacity:1;fill-rule:nonzero;stroke:none"
         id="path50"
         inkscape:connector-curvature="0" /><path
         d="m 3213.52,44.6797 h 25.02 V 260 h 72.64 v 22.371 H 3140.87 V 260 h 72.65 V 44.6797"
         style="fill:#0a3470;fill-opacity:1;fill-rule:nonzero;stroke:none"
         id="path52"
         inkscape:connector-curvature="0" /><path
         d="m 2818.98,44.6797 h 24.91 V 260 h 72.32 v 22.371 H 2746.67 V 260 h 72.31 V 44.6797"
         style="fill:#0a3470;fill-opacity:1;fill-rule:nonzero;stroke:none"
         id="path54"
         inkscape:connector-curvature="0" /><path
         d="m 1582.46,282.367 h 4.2 V 44.5625 h -23.5 V 204.109 c 0,2.575 0.11,5.317 0.29,8.352 0.17,2.973 0.35,5.836 0.58,8.582 0.24,2.746 0.41,5.031 0.58,6.75 0.18,1.773 0.3,2.687 0.3,2.742 -0.06,-0.055 -0.59,-0.797 -1.64,-2.281 -1.06,-1.434 -2.45,-3.32 -4.09,-5.551 -1.7,-2.293 -3.45,-4.637 -5.39,-7.094 -1.86,-2.461 -3.68,-4.695 -5.38,-6.699 L 1405.94,44.6523 h -4.21 V 281.957 h 23.86 V 122.414 c 0,-2.566 -0.12,-5.316 -0.35,-8.351 -0.17,-2.977 -0.41,-5.836 -0.7,-8.583 -0.29,-2.742 -0.53,-5.031 -0.7,-6.7495 -0.24,-1.7696 -0.35,-2.6875 -0.35,-2.7461 0.06,0.0586 0.58,0.8008 1.64,2.289 1.05,1.4297 2.45,3.3206 4.09,5.5506 1.69,2.289 3.45,4.633 5.38,7.094 1.87,2.461 3.69,4.687 5.38,6.691 l 142.48,164.758"
         style="fill:#0a3470;fill-opacity:1;fill-rule:nonzero;stroke:none"
         id="path56"
         inkscape:connector-curvature="0" /><path
         d="m 2960.17,44.1445 h 148.96 v 22.4219 h -123.9 v 59.5506 h 106.15 v 22.071 h -106.15 v 111.75 h 119.02 v 22.417 H 2960.17 V 44.1445"
         style="fill:#0a3470;fill-opacity:1;fill-rule:nonzero;stroke:none"
         id="path58"
         inkscape:connector-curvature="0" /><path
         d="m 2697.69,282.367 h 4.16 V 44.5625 h -23.22 V 204.109 c 0,2.575 0.11,5.317 0.29,8.352 0.17,2.973 0.34,5.836 0.58,8.582 0.23,2.746 0.4,5.031 0.57,6.75 0.18,1.773 0.29,2.687 0.29,2.742 -0.06,-0.055 -0.58,-0.797 -1.62,-2.281 -1.04,-1.434 -2.42,-3.32 -4.04,-5.551 -1.67,-2.293 -3.41,-4.637 -5.31,-7.094 -1.85,-2.461 -3.64,-4.695 -5.32,-6.699 L 2523.38,44.6563 h -4.16 V 282.453 h 23.57 V 122.414 c 0,-2.566 -0.12,-5.316 -0.35,-8.351 -0.17,-2.977 -0.4,-5.836 -0.69,-8.583 -0.29,-2.742 -0.52,-5.031 -0.7,-6.7495 -0.23,-1.7696 -0.34,-2.6875 -0.34,-2.7461 0.06,0.0586 0.58,0.8008 1.61,2.289 1.04,1.4297 2.43,3.3206 4.05,5.5506 1.67,2.289 3.41,4.633 5.31,7.094 1.85,2.461 3.64,4.687 5.32,6.691 l 140.69,164.758"
         style="fill:#0a3470;fill-opacity:1;fill-rule:nonzero;stroke:none"
         id="path60"
         inkscape:connector-curvature="0" /><path
         d="m 1834.85,321.281 h -20.12 v 55.899 h 16.62 l 80.05,208.902 h 7.05 l 84.46,-208.902 h 15.95 v -55.899 h -20.07 v 34.469 h -163.94 z m 19.55,55.899 h 124.41 L 1915,538.469 Z"
         style="fill:#0a3470;fill-opacity:1;fill-rule:nonzero;stroke:none"
         id="path62"
         inkscape:connector-curvature="0" /><path
         d="m 1667.46,373.551 -14.69,-12.5 c 48.41,-22.981 75.96,4.558 94.22,42.637 l 79.31,179.406 h -26.61 l -72.47,-169.75 -79.06,169.75 h -24.53 l 89.61,-191.621 c -6.67,-11.559 -16.05,-25.282 -45.78,-17.922"
         style="fill:#0a3470;fill-opacity:1;fill-rule:nonzero;stroke:none"
         id="path64"
         inkscape:connector-curvature="0" /><path
         d="m 2057.31,352.91 h 23.21 l 14.71,38.195 h 112.45 l 15.04,-38.195 h 24.85 l -94.15,230.184 h -3.92 z m 46.09,58.969 39.23,101.187 c 1.07,2.747 2.13,5.645 3.16,8.766 1.03,3.129 2.05,6.098 2.84,8.824 0.79,2.742 1.6,5.074 2.07,6.813 0.45,1.722 0.76,2.679 0.76,2.734 0,-0.055 0.3,-1.012 0.7,-2.734 0.41,-1.739 1.15,-4.024 1.97,-6.813 0.82,-2.793 1.76,-5.746 2.72,-8.824 0.95,-3.059 2.08,-6.137 3.11,-8.766 l 39.22,-101.187 h -95.78"
         style="fill:#0a3470;fill-opacity:1;fill-rule:nonzero;stroke:none"
         id="path66"
         inkscape:connector-curvature="0" /><path
         d="m 3946.92,512.367 c 12.15,-4.347 22.29,-10.097 30.5,-17.371 8.15,-7.223 14.29,-15.625 18.36,-25.273 4.13,-9.645 6.2,-20.246 6.2,-31.809 0,-12.469 -2.32,-23.914 -6.91,-34.238 -4.66,-10.375 -11.57,-19.344 -20.69,-26.903 -9.17,-7.558 -20.61,-13.367 -34.24,-17.539 -13.64,-4.121 -29.47,-6.207 -47.51,-6.261 h -59.33 v 230.121 h 27.93 V 522.18 h 31.4 c 4.66,0 9.38,-0.172 14.09,-0.512 4.72,-0.332 9.37,-0.844 13.83,-1.52 10.66,-1.859 19.39,-4.73 26.37,-7.781 z m -85.69,-11.512 V 374.629 h 29.85 c 14.8,0.055 27.4,1.637 37.81,4.797 10.4,3.156 18.87,7.558 25.33,13.254 6.53,5.695 11.25,12.41 14.22,20.078 3.04,7.672 4.52,16.074 4.46,25.156 0.06,9.078 -1.42,17.484 -4.4,25.102 -2.96,7.668 -7.68,14.324 -14.08,19.964 -6.46,5.641 -14.93,10.04 -25.34,13.141 -10.47,3.102 -23.13,4.684 -38,4.734 h -29.85"
         style="fill:#0a3470;fill-opacity:1;fill-rule:nonzero;stroke:none"
         id="path68"
         inkscape:connector-curvature="0" /><path
         d="m 4032.41,352.996 h 28.3 v 230.098 h -28.3 V 352.996"
         style="fill:#0a3470;fill-opacity:1;fill-rule:nonzero;stroke:none"
         id="path70"
         inkscape:connector-curvature="0" /><path
         d="m 1216.14,352.848 c 12.9,0.054 25.13,1.875 36.66,5.457 11.58,3.586 22.16,8.769 31.81,15.547 9.65,6.73 17.97,14.832 25.03,24.316 7.06,9.426 12.51,20.066 16.38,31.812 3.91,11.743 5.84,24.368 5.89,37.985 -0.05,13.621 -1.98,26.246 -5.89,37.984 -3.87,11.746 -9.32,22.387 -16.38,31.817 -7.06,9.484 -15.38,17.586 -25.03,24.312 -9.65,6.781 -20.23,11.965 -31.81,15.551 -11.53,3.582 -23.76,5.398 -36.66,5.457 -12.85,-0.059 -24.98,-1.875 -36.5,-5.457 -11.59,-3.586 -22.11,-8.77 -31.71,-15.551 -9.64,-6.726 -17.97,-14.828 -24.97,-24.312 -7.06,-9.43 -12.52,-20.071 -16.37,-31.817 -3.92,-11.738 -5.85,-24.363 -5.91,-37.984 0.06,-13.617 1.99,-26.242 5.91,-37.985 3.85,-11.746 9.31,-22.386 16.37,-31.812 7,-9.484 15.33,-17.586 24.97,-24.316 9.6,-6.778 20.12,-11.961 31.71,-15.547 11.52,-3.582 23.65,-5.403 36.5,-5.457 z m 0,21.504 c -13.13,0.054 -25.2,2.425 -36.23,7.109 -11.03,4.633 -20.57,11.191 -28.67,19.629 -8.16,8.379 -14.44,18.305 -18.91,29.66 -4.52,11.359 -6.78,23.762 -6.84,37.215 0.06,13.453 2.32,25.859 6.84,37.215 4.47,11.359 10.75,21.281 18.91,29.718 8.1,8.379 17.64,14.938 28.67,19.575 11.03,4.683 23.1,7.054 36.23,7.109 13.22,-0.055 25.35,-2.426 36.38,-7.109 11.09,-4.637 20.68,-11.196 28.84,-19.575 8.16,-8.437 14.44,-18.359 18.91,-29.718 4.52,-11.356 6.78,-23.762 6.84,-37.215 -0.06,-13.453 -2.32,-25.856 -6.84,-37.215 -4.47,-11.355 -10.75,-21.281 -18.91,-29.66 -8.16,-8.438 -17.75,-14.996 -28.84,-19.629 -11.03,-4.684 -23.16,-7.055 -36.38,-7.109"
         style="fill:#0a3470;fill-opacity:1;fill-rule:nonzero;stroke:none"
         id="path72"
         inkscape:connector-curvature="0" /><path
         d="m 1502.36,353.188 c 14.16,0.054 27.22,1.871 39.35,5.503 12.08,3.692 23,8.973 32.71,15.856 9.71,6.883 18.03,15.141 25.02,24.883 l -19.42,12.883 c -5.66,-7.875 -12.36,-14.59 -20.05,-20.204 -7.68,-5.613 -16.35,-9.906 -26,-12.882 -9.59,-3.028 -20.17,-4.516 -31.61,-4.571 -13.86,0.055 -26.52,2.422 -38.07,7.102 -11.56,4.629 -21.61,11.176 -30.11,19.601 -8.49,8.368 -15.08,18.278 -19.7,29.618 -4.68,11.339 -7.05,23.726 -7.11,37.16 0.06,13.429 2.43,25.816 7.11,37.16 4.62,11.34 11.21,21.246 19.7,29.668 8.5,8.371 18.55,14.922 30.11,19.547 11.55,4.679 24.21,7.047 38.07,7.101 11.33,-0.054 21.67,-1.488 31.03,-4.402 9.36,-2.859 17.68,-6.938 24.97,-12.223 7.27,-5.285 13.46,-11.504 18.54,-18.718 l 19.07,13.21 c -10.11,14.372 -23,25.274 -38.71,32.594 -15.78,7.324 -34.04,11.012 -54.9,11.012 -13.46,-0.059 -26.17,-1.871 -38.24,-5.453 -12.14,-3.578 -23.18,-8.754 -33.23,-15.524 -10.11,-6.714 -18.84,-14.808 -26.18,-24.277 -7.4,-9.418 -13.11,-20.039 -17.16,-31.766 -4.1,-11.722 -6.12,-24.336 -6.18,-37.929 0.06,-13.598 2.08,-26.203 6.18,-37.93 4.05,-11.73 9.76,-22.355 17.16,-31.766 7.34,-9.472 16.07,-17.562 26.18,-24.277 10.05,-6.773 21.09,-11.949 33.23,-15.527 12.07,-3.578 24.78,-5.395 38.24,-5.449"
         style="fill:#0a3470;fill-opacity:1;fill-rule:nonzero;stroke:none"
         id="path74"
         inkscape:connector-curvature="0" /><path
         d="m 2291.36,353 h 24.36 v 57.184 h 27.74 c 15.74,0.054 29.55,2.14 41.39,6.371 11.9,4.172 21.77,10.093 29.78,17.765 7.95,7.61 13.93,16.746 17.93,27.235 3.95,10.543 5.98,22.16 5.98,34.91 0,12.969 -2.03,24.754 -5.98,35.355 -4,10.602 -9.98,19.739 -17.93,27.352 -8.01,7.668 -17.88,13.531 -29.78,17.652 -11.84,4.114 -25.65,6.199 -41.39,6.258 h -52.1 z m 24.36,78.496 V 561.43 h 26.39 c 12.91,-0.063 23.91,-1.641 32.93,-4.797 9.08,-3.211 16.41,-7.668 22,-13.477 5.64,-5.812 9.69,-12.633 12.29,-20.527 2.59,-7.953 3.89,-16.637 3.83,-26.164 0.06,-9.535 -1.24,-18.219 -3.83,-26.11 -2.6,-7.953 -6.65,-14.777 -12.29,-20.585 -5.59,-5.809 -12.92,-10.262 -22,-13.422 -9.02,-3.215 -20.02,-4.797 -32.93,-4.852 h -26.39"
         style="fill:#0a3470;fill-opacity:1;fill-rule:nonzero;stroke:none"
         id="path76"
         inkscape:connector-curvature="0" /><path
         d="m 2600.56,353.488 c 14.17,0.051 27.24,1.867 39.38,5.496 12.09,3.688 23.02,8.961 32.74,15.836 9.71,6.871 18.04,15.121 25.04,24.848 l -19.43,12.867 c -5.67,-7.859 -12.38,-14.57 -20.07,-20.176 -7.7,-5.609 -16.37,-9.898 -26.03,-12.867 -9.6,-3.023 -20.18,-4.508 -31.63,-4.566 -13.88,0.058 -26.54,2.422 -38.11,7.097 -11.57,4.618 -21.63,11.161 -30.13,19.575 -8.5,8.355 -15.1,18.25 -19.72,29.574 -4.69,11.328 -7.06,23.699 -7.12,37.113 0.06,13.414 2.43,25.785 7.12,37.113 4.62,11.329 11.22,21.223 19.72,29.633 8.5,8.356 18.56,14.899 30.13,19.52 11.57,4.672 24.23,7.035 38.11,7.094 11.33,-0.059 21.69,-1.489 31.05,-4.403 9.37,-2.855 17.7,-6.926 24.99,-12.203 7.28,-5.277 13.47,-11.492 18.56,-18.691 l 19.09,13.191 c -10.12,14.352 -23.02,25.238 -38.75,32.551 -15.79,7.308 -34.06,10.996 -54.94,10.996 -13.47,-0.059 -26.2,-1.871 -38.29,-5.445 -12.14,-3.571 -23.19,-8.743 -33.25,-15.504 -10.12,-6.707 -18.85,-14.789 -26.2,-24.246 -7.4,-9.403 -13.13,-20.016 -17.17,-31.723 -4.11,-11.711 -6.13,-24.305 -6.19,-37.883 0.06,-13.578 2.08,-26.172 6.19,-37.879 4.04,-11.715 9.77,-22.324 17.17,-31.726 7.35,-9.453 16.08,-17.539 26.2,-24.246 10.06,-6.762 21.11,-11.93 33.25,-15.5 12.09,-3.579 24.82,-5.395 38.29,-5.446"
         style="fill:#0a3470;fill-opacity:1;fill-rule:nonzero;stroke:none"
         id="path78"
         inkscape:connector-curvature="0" /><path
         d="m 2793.51,353.25 h 24.33 v 208.199 h 70.64 v 21.633 h -165.61 v -21.633 h 70.64 V 353.25"
         style="fill:#0a3470;fill-opacity:1;fill-rule:nonzero;stroke:none"
         id="path80"
         inkscape:connector-curvature="0" /><path
         d="m 2938.11,353.488 h 86.09 c 12.22,0.055 22.91,1.801 32.02,5.176 9.07,3.434 16.6,8.164 22.63,14.293 6.02,6.078 10.52,13.223 13.5,21.387 2.99,8.215 4.45,17.105 4.45,26.672 -0.06,10.187 -1.92,19.359 -5.63,27.519 -3.77,8.16 -9.17,15.024 -16.21,20.598 -7.03,5.57 -15.47,9.566 -25.43,11.988 9.79,3.317 17.22,8.883 22.23,16.707 4.95,7.879 7.48,17.504 7.48,28.871 0,7.821 -1.29,15.137 -3.83,21.887 -2.59,6.812 -6.47,12.777 -11.64,17.953 -5.24,5.18 -11.77,9.176 -19.7,12.102 -7.94,2.925 -17.28,4.386 -27.97,4.445 h -77.99 z m 24.3,135.731 v 72.258 h 52 c 9.74,-0.059 17.62,-1.633 23.58,-4.727 5.97,-3.094 10.24,-7.316 12.94,-12.719 2.7,-5.402 4.05,-11.648 4,-18.683 0.05,-7.032 -1.18,-13.282 -3.72,-18.684 -2.47,-5.402 -6.46,-9.621 -11.92,-12.715 -5.47,-3.094 -12.67,-4.676 -21.5,-4.73 z m 0,-114.125 v 93.191 h 58.76 c 11.7,-0.055 21.27,-2.082 28.81,-6.074 7.54,-4 13.11,-9.457 16.77,-16.434 3.6,-6.98 5.4,-15.027 5.4,-24.086 0.05,-8.945 -1.63,-16.937 -5.06,-23.918 -3.44,-6.976 -8.79,-12.492 -16.1,-16.543 -7.31,-3.996 -16.83,-6.074 -28.47,-6.136 h -60.11"
         style="fill:#0a3470;fill-opacity:1;fill-rule:nonzero;stroke:none"
         id="path82"
         inkscape:connector-curvature="0" /><path
         d="m 3148.74,352.992 h 149.09 v 21.656 h -124.01 v 57.524 h 106.25 v 21.316 H 3173.82 V 561.43 h 119.14 v 21.652 h -144.22 v -230.09"
         style="fill:#0a3470;fill-opacity:1;fill-rule:nonzero;stroke:none"
         id="path84"
         inkscape:connector-curvature="0" /><path
         d="m 3350.57,352.992 h 25.06 v 78.164 h 126.65 v -78.164 h 25.05 v 230.09 h -25.05 V 453.488 h -126.65 v 129.594 h -25.06 v -230.09"
         style="fill:#0a3470;fill-opacity:1;fill-rule:nonzero;stroke:none"
         id="path86"
         inkscape:connector-curvature="0" /><path
         d="m 3592.44,352.992 h 24.83 v 78.164 h 125.54 v -78.164 h 24.83 v 230.09 h -24.83 V 453.488 h -125.54 v 129.594 h -24.83 v -230.09"
         style="fill:#0a3470;fill-opacity:1;fill-rule:nonzero;stroke:none"
         id="path88"
         inkscape:connector-curvature="0" /><path
         d="m 4174.86,583.242 h 68.84 c -12.26,-29.453 -52.35,-32.469 -68.84,0"
         style="fill:#0a3470;fill-opacity:1;fill-rule:evenodd;stroke:none"
         id="path90"
         inkscape:connector-curvature="0" /><path
         d="m 4127.68,352.973 h -4 v 230.269 h 22.29 V 428.07 c 0,-2.488 -0.11,-5.156 -0.28,-8.093 -0.16,-2.883 -0.33,-5.657 -0.55,-8.313 -0.22,-2.664 -0.39,-4.879 -0.55,-6.543 -0.17,-1.719 -0.28,-2.605 -0.28,-2.664 0.05,0.059 0.55,0.777 1.55,2.219 1,1.387 2.33,3.215 3.88,5.379 1.61,2.215 3.27,4.492 5.1,6.875 1.78,2.383 3.49,4.547 5.1,6.484 l 135.05,159.672 h 4 V 353.063 h -22.62 v 154.179 c 0,2.492 0.11,5.156 0.33,8.094 0.17,2.883 0.39,5.656 0.66,8.312 0.28,2.665 0.5,4.883 0.67,6.547 0.22,1.715 0.33,2.606 0.33,2.66 -0.05,-0.054 -0.55,-0.777 -1.55,-2.218 -0.99,-1.387 -2.33,-3.215 -3.88,-5.375 -1.61,-2.219 -3.27,-4.492 -5.1,-6.875 -1.78,-2.383 -3.49,-4.551 -5.1,-6.489 L 4127.68,352.973"
         style="fill:#0a3470;fill-opacity:1;fill-rule:nonzero;stroke:none"
         id="path92"
         inkscape:connector-curvature="0" /><path
         d="m 914.539,353.656 h 25.106 c 0.031,69.278 0.007,138.563 0.007,207.844 h 119.288 v 21.594 H 914.539 V 353.656"
         style="fill:#0a3470;fill-opacity:1;fill-rule:nonzero;stroke:none"
         id="path94"
         inkscape:connector-curvature="0" /><path
         d="M 763.656,27.5234 H 748.598 V 915.199 h 15.058 V 27.5234"
         style="fill:#0a3470;fill-opacity:1;fill-rule:evenodd;stroke:none"
         id="path96"
         inkscape:connector-curvature="0" /></g></g></svg>